<svg width="136" height="131" viewBox="0 0 136 131" fill="none" xmlns="http://www.w3.org/2000/svg">
<path d="M14.9999 25H121V131H14.9999V25Z" fill="black"/>
<path d="M67.9999 0L135.55 117H0.449951L67.9999 0Z" fill="#CE842F"/>
<path d="M51.2399 99.704C48.2106 99.704 43.8373 99.4693 38.1199 99L38.8879 83.448L38.1199 54.84H55.2079C60.9679 54.84 65.4693 56.568 68.7119 60.024C71.9546 63.48 73.5759 68.28 73.5759 74.424C73.5759 82.1893 71.5706 88.3547 67.5599 92.92C63.5493 97.4427 58.1093 99.704 51.2399 99.704ZM52.9039 61.752C50.0879 61.752 48.1039 61.7733 46.9519 61.816L46.3119 82.36L46.7599 92.728C50.3439 92.984 52.7546 93.112 53.9919 93.112C57.3626 93.112 60.0079 91.7467 61.9279 89.016C63.8906 86.2853 64.8719 82.3173 64.8719 77.112C64.8719 71.9067 63.9119 68.0453 61.9919 65.528C60.1146 63.0107 57.0853 61.752 52.9039 61.752Z" fill="black"/>
<path d="M80.6199 99L81.3879 83.448L80.6199 56.12L89.7079 54.52L88.8119 82.36L89.2599 92.728L102.38 91.704L101.676 99H80.6199Z" fill="black"/>
</svg>
